<svg width="41" height="59" viewBox="0 0 41 59" fill="none" xmlns="http://www.w3.org/2000/svg">
<path d="M6.16281 27.1875C6.15 27.5355 6.15 27.8707 6.15 28.2188V30.2812C6.15 30.6293 6.15 30.9645 6.16281 31.3125H4.1C1.83219 31.3125 0 33.1559 0 35.4375C0 37.7191 1.83219 39.5625 4.1 39.5625H7.72594C11.5184 50.3777 21.7812 58.125 33.825 58.125H36.9C39.1678 58.125 41 56.2816 41 54C41 51.7184 39.1678 49.875 36.9 49.875H33.825C26.4066 49.875 19.9619 45.6984 16.6691 39.5625H32.8C35.0678 39.5625 36.9 37.7191 36.9 35.4375C36.9 33.1559 35.0678 31.3125 32.8 31.3125H14.3756C14.3628 30.9773 14.35 30.6293 14.35 30.2812V28.2188C14.35 27.8707 14.3628 27.5227 14.3756 27.1875H32.8C35.0678 27.1875 36.9 25.3441 36.9 23.0625C36.9 20.7809 35.0678 18.9375 32.8 18.9375H16.6691C19.9619 12.8016 26.4066 8.625 33.825 8.625H36.9C39.1678 8.625 41 6.78164 41 4.5C41 2.21836 39.1678 0.375 36.9 0.375H33.825C21.7812 0.375 11.5184 8.12227 7.72594 18.9375H4.1C1.83219 18.9375 0 20.7809 0 23.0625C0 25.3441 1.83219 27.1875 4.1 27.1875H6.16281Z" fill="black"/>
</svg>
