<svg width="72" height="65" viewBox="0 0 72 65" fill="none" xmlns="http://www.w3.org/2000/svg">
<path d="M61.0833 64.5C58.7542 64.5 56.6639 63.8287 54.8125 62.4862C52.9611 61.1412 51.6771 59.4236 50.9604 57.3333H32.4167C28.475 57.3333 25.1007 55.9299 22.2937 53.1229C19.4868 50.316 18.0833 46.9417 18.0833 43C18.0833 39.0583 19.4868 35.684 22.2937 32.8771C25.1007 30.0701 28.475 28.6667 32.4167 28.6667H39.5833C41.5542 28.6667 43.2419 27.9643 44.6466 26.5597C46.0489 25.1574 46.75 23.4708 46.75 21.5C46.75 19.5292 46.0489 17.8414 44.6466 16.4367C43.2419 15.0345 41.5542 14.3333 39.5833 14.3333H21.0396C20.2632 16.4236 18.9648 18.1412 17.1445 19.4862C15.3218 20.8287 13.2458 21.5 10.9167 21.5C7.93055 21.5 5.39235 20.4549 3.30207 18.3646C1.2118 16.2743 0.166656 13.7361 0.166656 10.75C0.166656 7.76389 1.2118 5.22569 3.30207 3.13542C5.39235 1.04514 7.93055 0 10.9167 0C13.2458 0 15.3218 0.671278 17.1445 2.01383C18.9648 3.35878 20.2632 5.07639 21.0396 7.16667H39.5833C43.525 7.16667 46.8993 8.57014 49.7062 11.3771C52.5132 14.184 53.9167 17.5583 53.9167 21.5C53.9167 25.4417 52.5132 28.816 49.7062 31.6229C46.8993 34.4299 43.525 35.8333 39.5833 35.8333H32.4167C30.4458 35.8333 28.7593 36.5345 27.357 37.9367C25.9523 39.3414 25.25 41.0292 25.25 43C25.25 44.9708 25.9523 46.6586 27.357 48.0632C28.7593 49.4655 30.4458 50.1667 32.4167 50.1667H50.9604C51.7368 48.0764 53.0364 46.3588 54.8591 45.0138C56.6794 43.6713 58.7542 43 61.0833 43C64.0694 43 66.6076 44.0451 68.6979 46.1354C70.7882 48.2257 71.8333 50.7639 71.8333 53.75C71.8333 56.7361 70.7882 59.2743 68.6979 61.3646C66.6076 63.4549 64.0694 64.5 61.0833 64.5ZM10.9167 14.3333C11.9319 14.3333 12.7836 13.9905 13.4716 13.3049C14.1572 12.6169 14.5 11.7653 14.5 10.75C14.5 9.73472 14.1572 8.88308 13.4716 8.19508C12.7836 7.50947 11.9319 7.16667 10.9167 7.16667C9.90138 7.16667 9.04974 7.50947 8.36174 8.19508C7.67613 8.88308 7.33332 9.73472 7.33332 10.75C7.33332 11.7653 7.67613 12.6169 8.36174 13.3049C9.04974 13.9905 9.90138 14.3333 10.9167 14.3333Z" fill="black"/>
</svg>
