<svg width="73" height="72" viewBox="0 0 73 72" fill="none" xmlns="http://www.w3.org/2000/svg">
<path d="M14.5625 64.4375C21.5943 61.4169 28.2178 59.7851 34.4328 59.5471C40.6462 59.3075 48.6483 60.374 58.4375 62.75" stroke="black" stroke-width="4" stroke-linecap="round"/>
<path d="M34.8885 69.5C33.5941 53.57 34.1308 41.1956 36.5 32.375" stroke="black" stroke-width="4" stroke-linecap="round"/>
<path d="M36.5 34.3594C39.1831 24.2041 43.9081 18.1476 50.675 16.1918C57.4402 14.2343 63.9658 15.1304 70.25 18.8817C70.2821 27.1369 66.6978 33.1849 59.5006 37.024C52.3018 40.8647 44.6338 39.9771 36.5 34.3594V34.3594ZM36.149 32.5673C37.5547 20.4392 34.7366 11.8988 27.6946 6.94262C20.6544 1.98643 12.497 0.879434 3.22927 3.61993C1.61095 14.8081 4.08652 23.2675 10.6526 28.9982C17.2203 34.729 25.7186 35.9187 36.149 32.5656V32.5673Z" stroke="black" stroke-width="4" stroke-linejoin="round"/>
</svg>
